<svg width="18" height="18" viewBox="0 0 18 18" fill="none" xmlns="http://www.w3.org/2000/svg">
<path d="M6.20986 1.87536C6.68236 1.88973 7.13986 1.97223 7.58311 2.12298H7.62736C7.65736 2.13723 7.67986 2.15298 7.69486 2.16723C7.86061 2.22048 8.01736 2.28048 8.16736 2.36298L8.45236 2.49048C8.56486 2.55048 8.69986 2.66223 8.77486 2.70798C8.84986 2.75223 8.93236 2.79798 8.99986 2.84973C9.83311 2.21298 10.8449 1.86798 11.8874 1.87536C12.3606 1.87536 12.8331 1.94223 13.2824 2.09298C16.0506 2.99298 17.0481 6.03048 16.2149 8.68548C15.7424 10.0422 14.9699 11.2805 13.9581 12.2922C12.5099 13.6947 10.9206 14.9397 9.20986 16.0122L9.02236 16.1255L8.82736 16.0047C7.11061 14.9397 5.51236 13.6947 4.05061 12.2847C3.04561 11.273 2.27236 10.0422 1.79236 8.68548C0.94486 6.03048 1.94236 2.99298 4.74061 2.07723C4.95811 2.00223 5.18236 1.94973 5.40736 1.92048H5.49736C5.70811 1.88973 5.91736 1.87536 6.12736 1.87536H6.20986ZM12.8924 4.24548C12.5849 4.13973 12.2474 4.30548 12.1349 4.62048C12.0299 4.93548 12.1949 5.28048 12.5099 5.39223C12.9906 5.57223 13.3124 6.04548 13.3124 6.56973V6.59298C13.2981 6.76473 13.3499 6.93048 13.4549 7.05798C13.5599 7.18548 13.7174 7.25973 13.8824 7.27548C14.1899 7.26723 14.4524 7.02048 14.4749 6.70473V6.61548C14.4974 5.56473 13.8606 4.61298 12.8924 4.24548Z" fill="#D9D9D9"/>
</svg>
