<svg width="22" height="20" viewBox="0 0 22 20" fill="none" xmlns="http://www.w3.org/2000/svg">
<path d="M10.0526 0.80357C10.3589 -0.10292 11.6411 -0.102919 11.9474 0.80357L13.6889 5.95742C13.8263 6.36376 14.2074 6.63729 14.6363 6.63729H20.1862C21.1644 6.63729 21.5607 7.89686 20.7588 8.45706L16.3373 11.546C15.973 11.8005 15.8203 12.2649 15.9626 12.6859L17.6673 17.7305C17.9763 18.6449 16.9385 19.4232 16.1472 18.8704L11.5727 15.6747C11.2287 15.4344 10.7713 15.4344 10.4273 15.6747L5.85281 18.8704C5.06152 19.4232 4.02373 18.6449 4.33274 17.7305L6.0374 12.6859C6.17967 12.2649 6.02703 11.8005 5.66272 11.546L1.24115 8.45706C0.439258 7.89686 0.83565 6.63729 1.81384 6.63729H7.36368C7.7926 6.63729 8.17375 6.36376 8.31106 5.95742L10.0526 0.80357Z" fill="#FFC045"/>
</svg>
